<?xml version="1.0" encoding="utf-8"?>
<!-- Generator: Adobe Illustrator 19.0.0, SVG Export Plug-In . SVG Version: 6.00 Build 0)  -->
<svg version="1.1" id="consulting-layer" xmlns="http://www.w3.org/2000/svg" xmlns:xlink="http://www.w3.org/1999/xlink" x="0px"
	 y="0px" viewBox="0 0 720 512" style="enable-background:new 0 0 720 512;" xml:space="preserve">
<style type="text/css">
	.st0{fill:#25304D;stroke:#25304D;stroke-miterlimit:10;}
	.st1{fill:#51AACE;}
	.st2{fill:#FCB446;}
	.st3{fill:#FCDE46;}
	.st4{fill:#FCDE46;stroke:#FCDE46;stroke-miterlimit:10;}
	.st5{fill:#32546E;stroke:#32546E;stroke-miterlimit:10;}
	.st6{fill:none;stroke:#2B2B2B;stroke-width:5;stroke-linecap:round;stroke-miterlimit:10;}
	.st7{fill:none;stroke:#F9F9F9;stroke-width:3;stroke-miterlimit:10;}
	.st8{fill:none;stroke:#F9F9F9;stroke-width:3;stroke-miterlimit:10;stroke-dasharray:7.9878,7.9878;}
	.st9{fill:#FCB146;}
	.st10{fill:#F9F9F9;}
	.st11{fill:#DEE2E9;}
	.st12{fill:#54656D;}
	.st13{fill:#F8AD29;}
	.st14{fill:#F09922;}
	.st15{fill:#FEE9DA;}
	.st16{fill:#08090A;}
	.st17{fill:#D66557;}
	.st18{fill:none;stroke:#F9F9F9;stroke-width:4;stroke-miterlimit:10;stroke-dasharray:8;}
	.st19{fill:#FC5546;}
	.st20{fill:#FFFFFF;}
	.st21{fill:#51AACE;stroke:#51AACE;stroke-miterlimit:10;}
	.st22{fill:#F9594B;}
	.st23{fill:none;stroke:#C2C8D0;stroke-width:3;stroke-miterlimit:10;}
	.st24{fill:#FFFFFF;stroke:#FC5546;stroke-width:6;stroke-miterlimit:10;}
	.st25{fill:none;stroke:#51AACE;stroke-width:5;stroke-linecap:round;stroke-miterlimit:10;}
	.st26{fill:#AD7FA8;}
	.st27{fill:#158972;}
	.st28{fill:#1ABC9C;}
	.st29{fill:#2ABB9A;stroke:#158972;stroke-width:5;stroke-miterlimit:10;}
	.st30{fill:#6DDEC4;}
</style>
<rect id="consulting-background" y="0.1" class="st0" width="720" height="512"/>
<g id="consulting-bulb" opacity="0">
	<path id="XMLID_6_" class="st1" d="M402.6,373.8h-72.3c-3.3,0-6-2.7-6-6v-54h84.3v54C408.6,371,405.9,373.8,402.6,373.8z"/>
	<path id="XMLID_4_" class="st2" d="M364.9,121.2c61.4,0,81.7,52.8,81.7,52.8c12.4,33.6,0,60.7,0,60.7c-19.8,46.3-27,50-27,50
		c-8.3,20.2-9.6,40.3-9.6,40.3h-45L364.9,121.2z"/>
	<path id="XMLID_5_" class="st3" d="M366.2,121.2c-60,0-79.9,52.8-79.9,52.8c-12.1,33.6,0,60.7,0,60.7c19.3,46.3,26.4,50,26.4,50
		c5,15.3,9.4,40.3,9.4,40.3h44L366.2,121.2z"/>
	<path id="XMLID_7_" class="st4" d="M366.9,139.5c69.9-0.3,67.6,66,67.6,66H427c0.9-59.5-60.1-59.6-60.1-59.6L366.9,139.5z"/>
	<path id="XMLID_8_" class="st5" d="M409.4,362.6H322c-2.4,0-4.4-2-4.4-4.4l0,0c0-2.4,2-4.4,4.4-4.4h87.4c2.4,0,4.4,2,4.4,4.4l0,0
		C413.8,360.7,411.8,362.6,409.4,362.6z"/>
	<path id="XMLID_9_" class="st5" d="M409.5,348.1h-87.4c-2.4,0-4.4-2-4.4-4.4l0,0c0-2.4,2-4.4,4.4-4.4h87.4c2.4,0,4.4,2,4.4,4.4l0,0
		C413.9,346.2,411.9,348.1,409.5,348.1z"/>
	<path id="XMLID_12_" class="st6" d="M352,330.5h30l13.5-86.4l-2,5.8c-4.8-12.8-7.4-0.6-7.4-0.6c-3.1,7.6-7.1,1.6-7.1,1.6
		c-4.6-10.6-8.3-0.5-8.3-0.5c-2.4,7.8-6-0.4-6-0.4c-4.1-8.8-8-0.1-8-0.1c-2.6,7.4-6.1,0.1-6.1,0.1c-3.1-7.9-8.3-0.1-8.3-0.1
		l-2.6-1.5L352,330.5z"/>
	<path id="XMLID_10_" class="st5" d="M409.4,333.3H322c-2.4,0-4.4-2-4.4-4.4l0,0c0-2.4,2-4.4,4.4-4.4h87.4c2.4,0,4.4,2,4.4,4.4l0,0
		C413.8,331.3,411.8,333.3,409.4,333.3z"/>
</g>
<g id="consulting-design-2" opacity="0">
	<g id="XMLID_15_">
		<g id="XMLID_76_">
			<line id="XMLID_79_" class="st7" x1="280.9" y1="302.6" x2="280.8" y2="306.6"/>
			<path id="XMLID_78_" class="st8" d="M280.8,314.6l-0.7,67.4c-0.3,12.7-10.2,13.5-10.2,13.5H200"/>
			<line id="XMLID_77_" class="st7" x1="196" y1="395.5" x2="192" y2="395.5"/>
		</g>
	</g>
	<circle id="XMLID_13_" class="st9" cx="191.8" cy="393.8" r="9.3"/>
	<circle id="XMLID_14_" class="st3" cx="280.8" cy="301.8" r="9.3"/>
</g>
<g id="consulting-mouse" opacity="0">
	<path id="XMLID_17_" class="st10" d="M223.3,347.3L223.3,347.3c-10.9,0-19.8-8.9-19.8-19.8v-40.3c0-10.9,8.9-19.8,19.8-19.8h0
		c10.9,0,19.8,8.9,19.8,19.8v40.3C243.2,338.4,234.2,347.3,223.3,347.3z"/>
	<path id="XMLID_18_" class="st11" d="M223.3,347.6L223.3,347.6c-10.9,0-19.8-8.9-19.8-19.8v-40.3c0-10.9,8.9-19.8,19.8-19.8h0
		V347.6z"/>
	<circle id="XMLID_19_" class="st12" cx="222.8" cy="287.1" r="5.4"/>
</g>
<g id="consulting-pencil" opacity="0">
	<ellipse id="XMLID_44_" class="st1" cx="549.7" cy="214.5" rx="5.8" ry="6.5"/>
	<polygon id="XMLID_42_" class="st13" points="550,208 550,221 426.8,221 426.6,208 	"/>
	<rect id="XMLID_46_" x="426.2" y="214.5" class="st14" width="123.5" height="6.5"/>
	<path id="XMLID_43_" class="st15" d="M426.8,207.7c3,6.7,1.2,13.3,1.2,13.3l-24.7-6.8L426.8,207.7z"/>
	<path id="XMLID_41_" class="st16" d="M403.3,214.2l7.2-1.7c1.2,2,0,4.2,0,4.2L403.3,214.2z"/>
	<rect id="XMLID_45_" x="535.2" y="208" class="st17" width="3.8" height="13"/>
</g>
<g id="consulting-design-1" opacity="0">
	<g id="XMLID_50_">
		<path id="XMLID_51_" class="st18" d="M224.4,134.9l0.4-34.1c-0.7-16,19.1-14.7,19.1-14.7l243.6,0c22.4,0.7,17.5,20.7,17.5,20.7
			V171"/>
		<circle id="XMLID_16_" class="st9" cx="224.8" cy="134.8" r="9.3"/>
	</g>
	<circle id="XMLID_49_" class="st19" cx="505.8" cy="170.8" r="9.3"/>
</g>
<g id="consulting-web" opacity="0">
	<rect id="XMLID_52_" x="426.9" y="125.1" class="st20" width="36.1" height="35"/>
	<rect id="XMLID_53_" x="426.9" y="125.1" class="st21" width="36.1" height="7"/>
	<rect id="XMLID_54_" x="432.3" y="136" class="st22" width="17.4" height="4"/>
	<line id="XMLID_56_" class="st23" x1="452" y1="138.5" x2="458" y2="138.5"/>
	<line id="XMLID_57_" class="st23" x1="459" y1="144.5" x2="442" y2="144.5"/>
	<line id="XMLID_58_" class="st23" x1="440" y1="144.5" x2="432" y2="144.5"/>
	<line id="XMLID_59_" class="st23" x1="432" y1="149.5" x2="459" y2="149.5"/>
	<line id="XMLID_60_" class="st23" x1="452" y1="154.5" x2="432" y2="154.5"/>
</g>
<g id="consulting-target" opacity="0">
	<g id="XMLID_66_">
		<circle id="XMLID_61_" class="st24" cx="451.8" cy="355.2" r="46.2"/>
		<circle id="XMLID_63_" class="st24" cx="451.8" cy="355.1" r="32.1"/>
		<circle id="XMLID_64_" class="st24" cx="452.2" cy="354.3" r="18.3"/>
		<circle id="XMLID_65_" class="st19" cx="451.8" cy="353.8" r="9.3"/>
	</g>
	<line id="XMLID_69_" class="st25" x1="449" y1="354.5" x2="522" y2="354.5"/>
	<polygon id="XMLID_67_" class="st19" points="524,348 512,348 508.2,353.6 511.2,361 525,361 519.7,354.5 	"/>
</g>
<g id="consulting-wrench" opacity="0">
	<path id="XMLID_62_" class="st26" d="M529.9,261.4H463c-3.4,0-6.3-2.8-6.3-6.3l0,0c0-3.4,2.8-6.3,6.3-6.3h66.9
		c3.4,0,6.3,2.8,6.3,6.3l0,0C536.1,258.6,533.3,261.4,529.9,261.4z"/>
	<path id="XMLID_71_" class="st26" d="M526.4,254.9c-0.3-14,13.3-13.4,13.3-13.4c9.6-0.1,13,8.7,13,8.7l-13.6,0.2l0.4,10.6H553
		c-2.1,9-13.3,9-13.3,9C524.4,270,526.4,254.9,526.4,254.9z"/>
</g>
<g id="consulting-binokuler" opacity="0">
	<g id="XMLID_2_">
		<circle id="XMLID_32_" class="st27" cx="200.8" cy="177.3" r="14"/>
		<polygon id="XMLID_24_" class="st28" points="177.2,184.8 190.2,174 217,174 223.4,181 225,180.7 225,223 214,223 177,223 		"/>
		<rect id="XMLID_30_" x="206" y="205" class="st27" width="19" height="19"/>
		<circle id="XMLID_21_" class="st27" cx="185.5" cy="213.5" r="28"/>
		<circle id="XMLID_22_" class="st29" cx="185.1" cy="213.4" r="23.4"/>
		<circle id="XMLID_23_" class="st30" cx="177.8" cy="206.5" r="7"/>
	</g>
	<g id="XMLID_3_">
		<circle id="XMLID_31_" class="st27" cx="246.7" cy="177.3" r="14"/>
		<polygon id="XMLID_29_" class="st28" points="270.3,184.8 257.3,174 230.5,174 223.8,181 222,180.7 222,223 233.5,223 270.5,223 
					"/>
		<rect id="XMLID_28_" x="222" y="205" class="st27" width="19" height="19"/>
		<circle id="XMLID_27_" class="st27" cx="262" cy="213.5" r="28"/>
		<circle id="XMLID_26_" class="st29" cx="262.4" cy="213.4" r="23.4"/>
		<circle id="XMLID_25_" class="st30" cx="269.7" cy="206.5" r="7"/>
	</g>
</g>
</svg>
