<?xml version="1.0" encoding="utf-8"?>
<!-- Generator: Adobe Illustrator 19.0.0, SVG Export Plug-In . SVG Version: 6.00 Build 0)  -->
<svg version="1.1" id="waste-to-energy-layer" xmlns="http://www.w3.org/2000/svg" xmlns:xlink="http://www.w3.org/1999/xlink" x="0px" y="0px"
	 viewBox="0 0 720 512" style="enable-background:new 0 0 720 512;" xml:space="preserve">
<style type="text/css">
	.st0{fill:#25304D;stroke:#25304D;stroke-miterlimit:10;}
	.st1{fill:#ABBF60;}
	.st2{fill:#8FA342;}
	.st3{fill:#849139;}
	.st4{fill:#DDBC86;}
	.st5{fill:#C8A36C;}
	.st6{fill:#6B9A44;}
	.st7{fill:#F9BE20;}
	.st8{fill:#97592A;}
	.st9{fill:#FCDC51;}
	.st10{fill:#FFFEFF;}
	.st11{fill:#729146;}
	.st12{fill:#E84333;}
	.st13{fill:#F8B628;}
	.st14{fill:#0A4234;}
	.st15{fill:#7BA842;}
	.st16{fill:#985D2B;}
	.st17{fill:none;stroke:#B4D038;stroke-width:2;stroke-miterlimit:10;}
	.st18{fill:#374220;}
	.st19{fill:none;stroke:#F4BF28;stroke-width:2;stroke-linecap:round;stroke-miterlimit:10;stroke-dasharray:5;}
	.st20{fill:none;stroke:#FFFFFF;stroke-width:2;stroke-linecap:round;stroke-miterlimit:10;stroke-dasharray:5;}
	.st21{fill:none;stroke:#F9E76B;stroke-width:2;stroke-linecap:round;stroke-miterlimit:10;stroke-dasharray:5;}
	.st22{fill:none;stroke:#DEFF97;stroke-width:2;stroke-linecap:round;stroke-miterlimit:10;stroke-dasharray:5;}
	.st23{fill:#624729;stroke:#624729;stroke-miterlimit:10;}
	.st24{fill:#896745;stroke:#896745;stroke-miterlimit:10;}
	.st25{fill:none;stroke:#889086;stroke-width:2;stroke-miterlimit:10;}
	.st26{fill:#696969;stroke:#696969;stroke-miterlimit:10;}
	.st27{fill:#69686D;stroke:#69686D;stroke-miterlimit:10;}
	.st28{fill:#8C8C8C;stroke:#8C8C8C;stroke-miterlimit:10;}
	.st29{fill:#DECEA8;stroke:#DECEA8;stroke-miterlimit:10;}
	.st30{fill:#DFCCA7;stroke:#DFCCA7;stroke-miterlimit:10;}
	.st31{fill:#5B4727;stroke:#5B4727;stroke-miterlimit:10;}
	.st32{fill:#FB8D1A;stroke:#982011;stroke-width:4;stroke-miterlimit:10;}
	.st33{fill:#E9B846;stroke:#E9B846;stroke-miterlimit:10;}
	.st34{fill:#2C4C2C;stroke:#2C4C2C;stroke-miterlimit:10;}
	.st35{fill:#587F59;stroke:#456648;stroke-width:4;stroke-miterlimit:10;}
	.st36{fill:#587F59;stroke:#436546;stroke-width:4;stroke-miterlimit:10;}
	.st37{fill:#587F59;stroke:#436546;stroke-width:3;stroke-miterlimit:10;}
	.st38{fill:none;stroke:#866A45;stroke-width:2;stroke-miterlimit:10;}
	.st39{fill:none;stroke:#898483;stroke-miterlimit:10;}
	.st40{fill:#BDA780;stroke:#BDA780;stroke-miterlimit:10;}
	.st41{fill:#BCA87E;stroke:#BCA87E;stroke-miterlimit:10;}
	.st42{fill:#E5CBA8;stroke:#E5CBA8;stroke-miterlimit:10;}
	.st43{fill:#DBD4EB;stroke:#6D6A6E;stroke-miterlimit:10;}
	.st44{fill:#FFFBF2;}
	.st45{fill:#838CA3;}
	.st46{fill:none;stroke:#6D6A6E;stroke-miterlimit:10;}
	.st47{fill:#FDFEF9;stroke:#73727C;stroke-miterlimit:10;}
	.st48{fill:#D5D5E0;stroke:#73727C;stroke-miterlimit:10;}
	.st49{fill:#EADDBF;stroke:#EADDBF;stroke-miterlimit:10;}
	.st50{fill:#B6A885;stroke:#B6A885;stroke-miterlimit:10;}
	.st51{fill:#FDFBF6;stroke:#73727C;stroke-miterlimit:10;}
	.st52{fill:#7B8E99;}
	.st53{fill:#6D3732;stroke:#6D3732;stroke-miterlimit:10;}
	.st54{fill:#BC675B;}
	.st55{fill:#CA7D7A;stroke:#CA7D7A;stroke-miterlimit:10;}
	.st56{fill:#E1D45F;stroke:#E1D45F;stroke-miterlimit:10;}
	.st57{fill:#8F4940;stroke:#793832;stroke-miterlimit:10;}
	.st58{fill:#B56962;stroke:#793832;stroke-width:2;stroke-miterlimit:10;}
	.st59{fill:none;stroke:#793832;stroke-miterlimit:10;}
	.st60{fill:#B56962;stroke:#793832;stroke-miterlimit:10;}
	.st61{fill:none;stroke:#7E8690;stroke-width:5;stroke-linecap:round;stroke-miterlimit:10;}
	.st62{fill:#FAFAFA;}
	.st63{fill:none;stroke:#7A7977;stroke-miterlimit:10;}
	.st64{fill:none;stroke:#7A7977;stroke-miterlimit:10;stroke-dasharray:6.1809,6.1809;}
	.st65{fill:none;stroke:#7A7977;stroke-miterlimit:10;stroke-dasharray:3.2853,3.2853;}
	.st66{fill:none;stroke:#7A7977;stroke-miterlimit:10;stroke-dasharray:5.5819,5.5819;}
	.st67{fill:none;stroke:#7A7977;stroke-miterlimit:10;stroke-dasharray:3.8445,3.8445;}
	.st68{fill:#8D8A8D;}
	.st69{fill:#666B6A;}
	.st70{fill:#332F2A;stroke:#CDC9D3;stroke-width:3;stroke-miterlimit:10;}
	.st71{fill:none;stroke:#BAA780;stroke-width:6;stroke-miterlimit:10;}
	.st72{fill:none;stroke:#1D67B2;stroke-width:5;stroke-linecap:round;stroke-miterlimit:10;}
	.st73{fill:#CFD1D1;}
	.st74{fill:#767E80;stroke:#A0A0A0;stroke-width:4;stroke-miterlimit:10;}
	.st75{fill:#8B8E8E;}
	.st76{fill:#C0C8C9;}
	.st77{fill:#8A8D8D;}
	.st78{fill:#CBD2D3;}
	.st79{fill:#AFAFAF;}
	.st80{fill:none;stroke:#1D67B2;stroke-width:5;stroke-miterlimit:10;}
	.st81{fill:none;stroke:#7F442D;stroke-width:2;stroke-miterlimit:10;}
	.st82{fill:none;stroke:#814028;stroke-linecap:round;stroke-linejoin:round;stroke-miterlimit:10;}
	.st83{fill:#C0CACF;stroke:#C0CACF;stroke-miterlimit:10;}
	.st84{fill:#A9B2BB;stroke:#A9B2BB;stroke-miterlimit:10;}
	.st85{fill:#757C83;stroke:#757C83;stroke-miterlimit:10;}
	.st86{fill:#50575E;}
	.st87{fill:#DBCAA6;}
	.st88{fill:#DDCAA7;}
	.st89{fill:#CAAD80;}
	.st90{fill:#505560;}
	.st91{fill:#7F888F;}
	.st92{fill:#697076;}
	.st93{fill:#62686D;}
	.st94{fill:#6F767A;}
	.st95{fill:#A9B5BF;stroke:#A9B5BF;stroke-width:3;stroke-miterlimit:10;}
	.st96{fill:#CECDCD;stroke:#CECDCD;stroke-miterlimit:10;}
	.st97{fill:#6B686B;stroke:#6B686B;stroke-miterlimit:10;}
	.st98{fill:#8A8A8A;stroke:#8A8A8A;stroke-miterlimit:10;}
	.st99{fill:#282425;stroke:#898A91;stroke-width:3;stroke-miterlimit:10;}
	.st100{fill:#667075;}
	.st101{fill:none;stroke:#814028;stroke-width:2;stroke-linecap:round;stroke-linejoin:round;stroke-miterlimit:10;}
	.st102{fill:#DBC5A4;}
	.st103{fill:#C5C7D1;}
	.st104{fill:#49595F;}
	.st105{fill:#7F8891;}
	.st106{fill:#ABB4BC;}
	.st107{fill:#68727D;}
	.st108{fill:#A9B2B4;}
	.st109{fill:#7E8690;stroke:#4C5156;stroke-miterlimit:10;}
	.st110{fill:none;stroke:#8C949B;stroke-miterlimit:10;}
	.st111{fill:none;stroke:#7F442D;stroke-miterlimit:10;}
</style>
<rect id="waste-to-energy-background" class="st0" width="720" height="512"/>
<g id="waste-to-energy-stage" opacity="0">
	<g id="g8571">
		<polygon id="stage" class="st1" points="314,74.9 48,209.6 385,396 655,230 		"/>
		<g id="XMLID_516_">
			<polygon id="XMLID_520_" class="st2" points="48,249 385.1,442 385,396 48,209.6 			"/>
			<polygon id="XMLID_519_" class="st3" points="655,274 385.1,442 385,396 655,230 			"/>
			<polygon id="XMLID_518_" class="st4" points="48,249 385.1,442 385,417 48,230.6 			"/>
			<polygon id="XMLID_517_" class="st5" points="655,274 385.1,442 385,418 655,252 			"/>
		</g>
	</g>
	<ellipse id="shadow_x5F_9" class="st6" cx="433.7" cy="184.1" rx="8.3" ry="5.4"/>
	<ellipse id="shadow_x5F_5" class="st6" cx="180.9" cy="264" rx="8.3" ry="5.4"/>
	<g id="house_x5F_2">
		<polygon id="XMLID_236_" class="st7" points="560.6,214.5 539.9,202.9 528,223.2 551.1,236.6 		"/>
		<polygon id="XMLID_235_" class="st8" points="551.1,263 551,236 528.6,223.4 527.4,249.6 		"/>
		<polygon id="XMLID_234_" class="st9" points="566.6,255.2 551.4,263 550.9,236.6 560.7,214.7 566.6,229.1 		"/>
		<path id="XMLID_233_" class="st10" d="M530.1,233.8v9.1c0,0.6,0.3,1.2,0.9,1.5l2.4,1.2c1.1,0.5,2.4-0.2,2.4-1.5v-9.3
			c0-0.7-0.4-1.3-1-1.5l-2.4-1C531.3,231.9,530.1,232.6,530.1,233.8z"/>
		<path id="XMLID_232_" class="st10" d="M540.4,239.5v8c0,0.6,0.3,1.1,0.8,1.4l2.4,1.4c1.1,0.7,2.5-0.1,2.5-1.4v-8.4
			c0-0.7-0.4-1.3-1-1.5l-2.5-1C541.5,237.5,540.4,238.3,540.4,239.5L540.4,239.5z"/>
		<polygon id="XMLID_231_" class="st11" points="525.6,253 548.9,267 552.8,267 567,260 563.6,256.2 551.4,263 528.6,249.1 
			525.6,250.3 		"/>
	</g>
	<g id="house_x5F_1">
		<polygon id="XMLID_225_" class="st12" points="166.6,152.4 152.2,144.3 143,159.4 159,168.7 		"/>
		<polygon id="XMLID_226_" class="st13" points="159.7,186 160.1,167.7 143.1,158.6 143.1,176.7 		"/>
		<polygon id="XMLID_228_" class="st9" points="170.1,180.6 159.8,186 159.5,167.7 166.3,152.5 170.1,162.5 		"/>
		<path id="XMLID_227_" class="st10" d="M145.4,165.7v6.3c0,0.4,0.2,0.8,0.6,1l1.7,0.8c0.7,0.4,1.6-0.2,1.6-1v-6.5
			c0-0.5-0.3-0.9-0.7-1l-1.7-0.7C146.2,164.4,145.4,164.9,145.4,165.7L145.4,165.7z"/>
		<path id="XMLID_229_" class="st10" d="M152.5,169.7v5.5c0,0.4,0.2,0.8,0.6,1l1.6,1c0.8,0.5,1.7-0.1,1.7-1v-5.9
			c0-0.5-0.3-0.9-0.7-1.1l-1.6-0.7C153.3,168.3,152.5,168.9,152.5,169.7z"/>
		<polygon id="XMLID_230_" class="st11" points="142.1,179 158.4,189 161.2,189 171,184 168.6,181.9 160.2,186 144.3,176.4 
			142.1,177.2 		"/>
	</g>
	<g id="house_x5F_3">
		<polygon id="XMLID_242_" class="st14" points="479.2,219.8 456.3,207 443.2,229.4 468.7,244.2 		"/>
		<polygon id="XMLID_241_" class="st13" points="468.8,273.3 468.1,243.4 443.7,229.7 442.9,258.5 		"/>
		<polygon id="XMLID_240_" class="st9" points="486,264.7 469.1,273.3 467.8,244.2 479.4,220 486,235.9 		"/>
		<path id="XMLID_239_" class="st10" d="M445.5,241.1v10c0,0.7,0.4,1.3,1,1.6l2.7,1.3c1.2,0.6,2.6-0.3,2.6-1.6v-10.2
			c0-0.7-0.4-1.4-1.1-1.7l-2.7-1.1C446.8,239,445.5,239.8,445.5,241.1z"/>
		<path id="XMLID_238_" class="st10" d="M456.8,247.4v8.8c0,0.6,0.3,1.2,0.9,1.6l2.6,1.6c1.2,0.7,2.8-0.1,2.8-1.6v-9.3
			c0-0.7-0.5-1.4-1.1-1.7l-2.6-1C458.1,245.2,456.8,246.1,456.8,247.4L456.8,247.4z"/>
		<polygon id="XMLID_237_" class="st11" points="441,262.2 466.2,279.2 470.6,279.2 486.2,270.7 482.4,266.2 469.1,273.5 444.1,258 
			441,259.2 		"/>
	</g>
	<g id="tree_x5F_5">
		<polygon id="XMLID_224_" class="st15" points="435.5,176.5 450,167.9 435.5,135 420.9,167.9 432.6,174.8 		"/>
		<polygon id="XMLID_222_" class="st16" points="435.7,176.5 432.7,174.8 432.3,183 435.7,185.1 439.1,183 439.1,174.7 		"/>
		<line id="XMLID_221_" class="st17" x1="435.5" y1="145.5" x2="435.5" y2="176"/>
		<polyline id="XMLID_220_" class="st17" points="440.1,153.1 440.1,155.1 435.6,158.3 		"/>
		<polyline id="XMLID_219_" class="st17" points="443.1,161.1 443.1,164.3 439.2,166.5 435.6,168.8 		"/>
		<polyline id="XMLID_218_" class="st17" points="442,169.5 440.1,170.1 440.1,166.1 		"/>
		<polyline id="XMLID_217_" class="st17" points="430.1,155.1 430.1,158.2 436,161.7 		"/>
		<polyline id="XMLID_216_" class="st17" points="429.6,161.7 431.5,163 431.6,159.4 		"/>
	</g>
	<ellipse id="shadow_x5F_8" class="st6" cx="510" cy="219.1" rx="8.3" ry="5.4"/>
	<g id="tree_x5F_2_1_">
		<polygon id="XMLID_215_" class="st18" points="510.2,208.4 524.8,199.8 510.2,166.9 495.6,199.8 507.3,206.7 		"/>
		<polygon id="XMLID_214_" class="st16" points="509.8,208.4 507.1,206.7 507,215 509.8,217 512.6,214.9 512.6,206.6 		"/>
		<line id="XMLID_213_" class="st17" x1="510.2" y1="177.4" x2="510.3" y2="207.9"/>
		<polyline id="XMLID_212_" class="st17" points="513.6,183 513.6,187 509.6,189.3 506.6,186 506.6,182 		"/>
		<polyline id="XMLID_296_" class="st17" points="517.6,192 517.6,196.2 513.8,198.4 509.9,200.2 505.9,198.2 503.6,196.9 
			503.6,193 		"/>
		<line id="XMLID_295_" class="st17" x1="506.6" y1="194" x2="506.6" y2="199"/>
	</g>
	<g id="tree_x5F_2">
		<polygon id="XMLID_211_" class="st18" points="165.4,233.6 179.9,225 165.4,192.1 150.8,225 162.5,231.9 		"/>
		<polygon id="XMLID_281_" class="st16" points="164.9,233.6 162.2,231.9 162.2,240.1 164.9,242.2 167.6,240.1 167.6,231.8 		"/>
		<line id="XMLID_280_" class="st17" x1="165.4" y1="202.6" x2="165.4" y2="233.1"/>
		<polyline id="XMLID_275_" class="st17" points="170.6,208 170.6,212.2 166.1,214.5 162.6,211.2 162.6,207 		"/>
		<polyline id="XMLID_277_" class="st17" points="172.6,217 172.6,221.4 168.9,223.6 165,225.4 160.5,223.4 157.6,222.1 157.6,217 
					"/>
		<line id="XMLID_279_" class="st17" x1="162.6" y1="219" x2="162.6" y2="225"/>
	</g>
	<g id="garbage_x5F_aj">
		<line id="XMLID_243_" class="st19" x1="425.6" y1="252" x2="425.6" y2="248"/>
		<line id="XMLID_210_" class="st20" x1="428.7" y1="249.6" x2="428.4" y2="253"/>
		<line id="XMLID_209_" class="st21" x1="431.6" y1="248" x2="431.6" y2="246"/>
		<line id="XMLID_208_" class="st22" x1="433.6" y1="251" x2="433.6" y2="253"/>
	</g>
	<g id="garbage_x5F_ai">
		<line id="XMLID_207_" class="st19" x1="229.6" y1="308" x2="229.6" y2="303"/>
		<line id="XMLID_206_" class="st20" x1="233.5" y1="305.5" x2="233.1" y2="308.9"/>
		<line id="XMLID_205_" class="st21" x1="236.6" y1="303" x2="236.6" y2="301"/>
		<line id="XMLID_223_" class="st22" x1="238.6" y1="306" x2="238.6" y2="309"/>
	</g>
	<g id="garbage_x5F_ag">
		<line id="XMLID_200_" class="st19" x1="474.6" y1="205" x2="474.6" y2="202"/>
		<line id="XMLID_199_" class="st20" x1="477.6" y1="203.1" x2="477.2" y2="206.6"/>
		<line id="XMLID_198_" class="st21" x1="480.6" y1="202" x2="480.6" y2="199"/>
		<line id="XMLID_197_" class="st22" x1="483.6" y1="204" x2="483.6" y2="207"/>
	</g>
	<g id="garbage_x5F_ae">
		<line id="XMLID_192_" class="st19" x1="444.6" y1="157" x2="444.6" y2="152"/>
		<line id="XMLID_191_" class="st20" x1="448.4" y1="154.3" x2="448" y2="157.7"/>
		<line id="XMLID_190_" class="st21" x1="451.6" y1="152" x2="451.6" y2="151"/>
		<line id="XMLID_189_" class="st22" x1="452.6" y1="156" x2="452.6" y2="158"/>
	</g>
	<g id="garbage_x5F_ab">
		<line id="XMLID_81_" class="st19" x1="436.6" y1="341" x2="436.6" y2="336"/>
		<line id="XMLID_80_" class="st20" x1="439.8" y1="337.8" x2="439.4" y2="341.2"/>
		<line id="XMLID_79_" class="st21" x1="442.6" y1="336" x2="442.6" y2="333"/>
		<line id="XMLID_78_" class="st22" x1="444.6" y1="339" x2="444.6" y2="342"/>
	</g>
	<g id="garbage_x5F_aa_9_">
		<line id="XMLID_77_" class="st19" x1="146.6" y1="259" x2="146.6" y2="255"/>
		<line id="XMLID_3_" class="st20" x1="150" y1="256.7" x2="149.7" y2="260.1"/>
		<line id="XMLID_2_" class="st21" x1="152.6" y1="255" x2="152.6" y2="252"/>
		<line id="XMLID_1_" class="st22" x1="154.6" y1="258" x2="154.6" y2="260"/>
	</g>
	
		<ellipse id="shadow_x5F_4" transform="matrix(-0.8684 -0.4958 0.4958 -0.8684 187.9282 535.4826)" class="st6" cx="165" cy="242.8" rx="10.7" ry="5"/>
	<g id="tree_x5F_4">
		<polygon id="XMLID_255_" class="st15" points="180.6,254.2 199.3,243.2 180.6,200.7 161.8,243.2 176.9,252 		"/>
		<polygon id="XMLID_259_" class="st16" points="180.5,254.2 176.8,252 176.5,262.6 180.5,265.2 184.6,262.6 184.6,251.8 		"/>
		<line id="XMLID_270_" class="st17" x1="180.6" y1="214.3" x2="180.7" y2="253.5"/>
		<polyline id="XMLID_268_" class="st17" points="185.6,222 185.6,226.6 179.8,229.7 		"/>
		<polyline id="XMLID_271_" class="st17" points="190.6,233 190.6,238.4 185.5,241.3 180.9,243.7 		"/>
		<polyline id="XMLID_272_" class="st17" points="188.1,244.8 185.6,246 185.6,240 		"/>
		<polyline id="XMLID_273_" class="st17" points="172.6,226 172.6,230.6 180.2,234.8 		"/>
		<polyline id="XMLID_274_" class="st17" points="173,235.1 175.5,236.8 175.6,232.1 		"/>
	</g>
	<g id="garbage_x5F_ac">
		<line id="XMLID_85_" class="st19" x1="366" y1="215" x2="366" y2="211"/>
		<line id="XMLID_84_" class="st20" x1="369.4" y1="212.6" x2="369" y2="216"/>
		<line id="XMLID_83_" class="st21" x1="372" y1="211" x2="372" y2="208"/>
		<line id="XMLID_82_" class="st22" x1="375" y1="214" x2="375" y2="217"/>
	</g>
</g>
<g id="waste-to-energy-boiler" opacity="0">
	<g id="XMLID_405_">
		<polyline id="XMLID_186_" class="st23" points="256.8,128.1 273,129.4 293,150.3 267.5,165 267.5,229.7 256.9,216.8 		"/>
		<polygon id="XMLID_185_" class="st24" points="256.5,128 231.7,141.9 232.1,202.1 232.2,229.4 256.5,216.8 		"/>
	</g>
	<g id="XMLID_18_">
		<polygon id="XMLID_16_" class="st25" points="284,271 250.1,291.3 246.1,293.7 219.3,258.7 224.4,255.9 257.1,237.8 		"/>
		<line id="XMLID_19_" class="st25" x1="250.1" y1="291.3" x2="224.4" y2="255.9"/>
		<line id="XMLID_20_" class="st25" x1="253.8" y1="289.1" x2="228" y2="253.9"/>
		<line id="XMLID_21_" class="st25" x1="257.9" y1="286.7" x2="231.4" y2="252"/>
		<line id="XMLID_22_" class="st25" x1="261.7" y1="284.4" x2="235.7" y2="249.6"/>
		<line id="XMLID_23_" class="st25" x1="265" y1="282.4" x2="239.3" y2="248.1"/>
		<line id="XMLID_24_" class="st25" x1="268.8" y1="280.1" x2="242.6" y2="245.8"/>
		<line id="XMLID_25_" class="st25" x1="272.3" y1="278" x2="246.6" y2="243.6"/>
		<line id="XMLID_26_" class="st25" x1="275.5" y1="276.1" x2="250.1" y2="241.7"/>
		<line id="XMLID_27_" class="st25" x1="279.7" y1="273.6" x2="253.8" y2="239.6"/>
		<line id="XMLID_28_" class="st25" x1="243.3" y1="289.9" x2="281.3" y2="267.6"/>
		<line id="XMLID_29_" class="st25" x1="240.9" y1="286.7" x2="278.3" y2="264"/>
		<line id="XMLID_30_" class="st25" x1="237.5" y1="282.4" x2="275" y2="259.8"/>
		<line id="XMLID_31_" class="st25" x1="234.7" y1="278.8" x2="271.8" y2="255.9"/>
		<line id="XMLID_32_" class="st25" x1="232.1" y1="275.3" x2="268.8" y2="252.3"/>
		<line id="XMLID_33_" class="st25" x1="229.1" y1="271.5" x2="266" y2="248.8"/>
		<line id="XMLID_34_" class="st25" x1="226.7" y1="268.3" x2="262.8" y2="244.8"/>
		<line id="XMLID_35_" class="st25" x1="223.2" y1="263.8" x2="260.3" y2="241.7"/>
	</g>
	<g id="XMLID_60_">
		<polygon id="XMLID_13_" class="st26" points="189.5,201.9 189.5,211.8 229.2,262.9 229,252.1 		"/>
		<polygon id="XMLID_15_" class="st27" points="218.5,184.8 218.5,194.7 258.2,245.7 258,234.9 		"/>
		<polygon id="XMLID_17_" class="st28" points="218.5,194.7 194.9,208.8 229,252.1 229.2,262.9 258.2,245.7 		"/>
	</g>
	<polygon id="XMLID_6_" class="st29" points="212,138.6 228.1,140.3 256.7,124.5 273.2,126 290.8,116.6 256.9,111.3 	"/>
	<polygon id="XMLID_11_" class="st30" points="280,177.3 325.1,151.3 323.8,269.7 280.2,294.3 	"/>
	<polygon id="XMLID_14_" class="st31" points="267.5,289.9 256.9,295.7 267.4,293.9 267.9,296.3 245.8,300.3 229.1,278.9 
		232.6,277.6 246.4,295 267.5,282.7 	"/>
	<g id="waste-to-energy-fire" opacity="0">
		<path id="XMLID_42_" class="st32" d="M236.5,263.1c-13.6-10.8-4.6-23.5-4.6-23.5c15.8-13.6,7.3-29.3,7.3-29.3
			c6.8,11.7,2.3,20,2.3,20c8.5-16.3,0.3-25.3,0.3-25.3c-2.9-11.9,0.9-17.4,0.9-17.4c-2.9,15.8,4.4,24.9,4.4,24.9
			c3.1,9.5,0,18.3,0,18.3c11.4-7,1.4-24.2,1.4-24.2c5.9,6.2,5.9,22.7,5.9,22.7c-6.2-25.5-2.6-29.3-2.6-29.3
			c0.1,14.8,6.4,19.4,6.4,19.4c4.2,5.7-1.8,17.2-1.8,17.2c7.5-9,4.8-22.2,4.8-22.2c-2.2-8.4-4.4-8.6-4.4-8.6
			c8.1,8.1,5.9,28.2,5.9,28.2c8.6-16.3,0.3-26.8,0.3-26.8c-8-15-3.6-26.6-3.6-26.6c-4,19.6,7.2,26,7.2,26c13.3,13,8.9,37.2,8.9,37.2
			c-1.3,27.9-26.4,23.8-26.4,23.8C240.4,267.7,236.5,263.1,236.5,263.1z"/>
		<path id="XMLID_43_" class="st33" d="M238.2,261.3c-6.8-9.2-3.3-12.1-3.3-12.1c2.2,6.6,6.2,6,6.2,6c0.4-10.7,5.1-15.1,5.1-15.1
			c4.6-3.3,4.2-6.2,4.2-6.2c2.6,12.8,0,16.1,0,16.1c3.1-1.1,5-7.3,5-7.3c1.8,5.3,0,8.1,0,8.1c4.8-0.4,12.3-9.9,12.3-9.9
			c5.7,13.4,0,20.2,0,20.2c-9.5,8.4-20,5.7-20,5.7C240.4,265.5,238.2,261.3,238.2,261.3z"/>
	</g>
	<g id="waste-to-energy-waste" opacity="0">
		<polygon id="XMLID_38_" class="st34" points="244.7,283.8 253.4,284.8 271.3,278.1 270,260 267.2,252.7 260.3,247.5 244.7,247.5 
			236.7,251.6 232.5,259.9 236.7,273.9 		"/>
		<polygon id="XMLID_36_" class="st35" points="251,265.1 247,274.3 256.7,282 269.9,270.6 268.4,262.7 258.5,259.8 		"/>
		<polygon id="XMLID_37_" class="st36" points="245.7,261.3 260.7,265.1 263.7,254.5 259.3,248.6 245.7,247.9 239.1,252.8 		"/>
		<polygon id="XMLID_39_" class="st37" points="233.8,259.8 240,262.2 242,252.8 237.9,251.4 235.4,254.1 		"/>
	</g>
	<polygon id="XMLID_4_" class="st38" points="211,138.6 257.3,111.1 291.4,115.7 325.8,151.6 325.1,270.4 280.2,295 245.8,300.3 
		211,256.1 	"/>
	<polyline id="XMLID_12_" class="st39" points="267.8,289.5 257.4,295.7 268.4,293.7 	"/>
	<polygon id="XMLID_10_" class="st40" points="280.5,178 267.7,165 268.3,296.3 280.5,294.3 	"/>
	<polygon id="XMLID_5_" class="st41" points="211.5,138.8 227.9,140.6 228.9,278.7 211.5,255.8 	"/>
	<polygon id="XMLID_9_" class="st42" points="256.5,124.7 256.5,128 231.7,141.9 232.2,277.6 228.5,278.9 228.5,140.6 	"/>
	<g id="XMLID_68_">
		<path id="XMLID_41_" class="st43" d="M285,147.8l-27.3,16.5c-5.4,3.3-12.5,1.5-15.7-3.9l-0.8-1.3c-3.3-5.4-1.5-12.5,3.9-15.7
			l27.3-16.5c5.4-3.3,12.5-1.5,15.7,3.9l0.8,1.3C292.1,137.5,290.3,144.5,285,147.8z"/>
		<path id="XMLID_45_" class="st43" d="M245.7,143.1c16.1,1.7,13.8,20.2,13.8,20.2c-11.8,6.4-18.5-4.6-18.5-4.6
			C235.6,147.2,245.7,143.1,245.7,143.1z"/>
		<path id="XMLID_44_" class="st44" d="M239.8,154.1c10-2.4,10.3-10,10.3-10l22.9-14.8l-3.9-0.5l-23.4,14.2
			C238.2,147.8,239.8,154.1,239.8,154.1z"/>
		<path id="XMLID_62_" class="st45" d="M259.2,156.4c16-2.7,24.3-16,24.3-16l4.4,5.3l-28.5,17.6c-9.3,5-16.5-1.6-16.5-1.6
			C250.8,167.6,259.2,156.4,259.2,156.4z"/>
		<path id="XMLID_64_" class="st46" d="M250.1,144.1c-1.9-0.7-4.4-1-4.4-1"/>
		<path id="XMLID_69_" class="st46" d="M259.5,163.2c0.4-3.6-0.3-6.8-0.3-6.8"/>
	</g>
	<path id="XMLID_46_" class="st47" d="M266.8,135.2h-0.4c-1.6,0-2.8-1.3-2.8-2.8v-3.1c0-1.6,1.3-2.8,2.8-2.8h0.4
		c1.6,0,2.8,1.3,2.8,2.8v3.1C269.6,133.9,268.3,135.2,266.8,135.2z"/>
	<path id="XMLID_66_" class="st48" d="M266.8,135.2h-0.2v-8.7h0.2c1.6,0,2.8,1.3,2.8,2.8v3.1C269.6,133.9,268.3,135.2,266.8,135.2z"
		/>
	<polygon id="XMLID_7_" class="st49" points="290.6,116.4 273.9,126.3 295.2,148.7 267.7,165 280.2,177.7 324.9,152 	"/>
	<polygon id="XMLID_8_" class="st50" points="256.5,124.7 256.5,127.4 273.2,129.3 293.1,150.2 295.5,148.9 273.2,126.3 	"/>
	<ellipse id="XMLID_65_" class="st51" cx="266.6" cy="128.3" rx="3" ry="1.8"/>
	<ellipse id="XMLID_63_" class="st52" cx="266.3" cy="127.8" rx="1.9" ry="1.2"/>
</g>
<g id="waste-to-energy-output" opacity="0">
	<g id="XMLID_183_">
		<g id="XMLID_180_">
			<polygon id="XMLID_166_" class="st53" points="292.5,94.4 292.5,113.5 309.5,122.7 309.5,103.6 			"/>
			<polygon id="XMLID_167_" class="st54" points="326,94.4 326,112.8 310,122.7 310,103.6 			"/>
			<polygon id="XMLID_168_" class="st55" points="309.6,86.1 326.1,94.4 309.6,103.6 293.1,94.4 			"/>
			<polygon id="XMLID_179_" class="st56" points="321.1,100.5 313.6,109.5 317.3,108.6 314.1,117.6 321.1,107.3 318.5,107.8 			"/>
		</g>
		<g id="XMLID_182_">
			<path id="XMLID_169_" class="st57" d="M313.6,99.5h-7c-4.7,0-8.5-3.8-8.5-8.5V90c0-4.7,3.8-8.5,8.5-8.5h7c4.7,0,8.5,3.8,8.5,8.5
				v1.1C322,95.7,318.2,99.5,313.6,99.5z"/>
			<path id="XMLID_170_" class="st58" d="M322,87.9c0,3.6-5.4,6.4-12,6.4c-4.6,0-8.5-1.4-10.6-3.4c-0.9-0.9-1.4-1.9-1.4-3
				c0-3.6,5.4-6.4,12-6.4C316.7,81.5,322,84.4,322,87.9z"/>
			<line id="XMLID_173_" class="st59" x1="309.5" y1="82" x2="309.5" y2="95"/>
			<line id="XMLID_174_" class="st59" x1="322" y1="87.5" x2="298" y2="87.5"/>
			<line id="XMLID_175_" class="st59" x1="317.9" y1="83.1" x2="302.6" y2="92.5"/>
			<line id="XMLID_176_" class="st59" x1="313.6" y1="94.1" x2="306.3" y2="81.8"/>
			<line id="XMLID_177_" class="st59" x1="317.9" y1="92.5" x2="302.2" y2="83.1"/>
			<line id="XMLID_178_" class="st59" x1="306.5" y1="94.1" x2="313.6" y2="81.5"/>
			<polyline id="XMLID_171_" class="st59" points="299.5,84.9 310.3,87.4 319.7,84.5 			"/>
			<polyline id="XMLID_181_" class="st59" points="299.5,91 310,87.7 320.2,91.4 			"/>
			<path id="XMLID_172_" class="st60" d="M310.1,82.9c2.7-0.2,2.5,5.5,2.5,5.5c-3.2,2.1-5.2,0-5.2,0C307,82.9,310.1,82.9,310.1,82.9
				z"/>
		</g>
	</g>
	<line id="XMLID_407_" class="st61" x1="270.1" y1="126.2" x2="299.4" y2="108.9"/>
</g>
<g id="waste-to-energy-exhaust" opacity="0">
	<g id="XMLID_89_">
		<g id="XMLID_52_">
			<path id="XMLID_265_" class="st62" d="M304.6,185.3l17.2,10.4c2.4,1.9,1.7,5,1.7,5l-0.1,23.7l15.7,0.6v-31.5c1-9.2-4.2-11-4.2-11
				l-20.4-11.6L304.6,185.3z"/>
			<g id="XMLID_254_">
				<polyline id="XMLID_264_" class="st63" points="306.2,182.8 304.6,185.3 307.1,186.8 				"/>
				<path id="XMLID_263_" class="st64" d="M312.4,190l9.3,5.6c2.4,1.9,1.7,5,1.7,5l0,17.6"/>
				<polyline id="XMLID_262_" class="st63" points="323.5,221.3 323.5,224.3 326.5,224.4 				"/>
				<line id="XMLID_261_" class="st65" x1="329.7" y1="224.5" x2="334.7" y2="224.7"/>
				<polyline id="XMLID_260_" class="st63" points="336.5,224.8 339.5,224.8 339.5,222 				"/>
				<path id="XMLID_258_" class="st66" d="M339.5,216v-22.6c0-9.2-4.5-11-4.5-11l-15.4-8.8"/>
				<polyline id="XMLID_257_" class="st63" points="317.1,172.3 314.5,170.8 312.8,173.3 				"/>
				<line id="XMLID_256_" class="st67" x1="310.6" y1="176.5" x2="307.3" y2="181.2"/>
			</g>
		</g>
		<g id="XMLID_48_">
			<path id="XMLID_49_" class="st68" d="M306.9,186.5l-4-2.4c-4.1-2.4-5.5-7.8-3.1-11.9l0.6-1c2.4-4.1,7.8-5.5,11.9-3.1l4,2.4
				c4.1,2.4,5.5,7.8,3.1,11.9l-0.6,1C316.4,187.6,311,189,306.9,186.5z"/>
			<path id="XMLID_50_" class="st69" d="M305.8,185.6l-1.1-0.7c-4.8-2.8-6.4-9.1-3.6-13.9l0.6-1.1l18.7,11l-0.6,1.1
				C316.8,186.8,310.6,188.4,305.8,185.6z"/>
			
				<ellipse id="XMLID_51_" transform="matrix(0.5836 -0.8121 0.8121 0.5836 -15.6694 331.0788)" class="st70" cx="315" cy="180.8" rx="7.9" ry="4.5"/>
		</g>
	</g>
	<polyline id="XMLID_76_" class="st71" points="321.1,184.5 333,190.7 333,214 	"/>
</g>
<g id="waste-to-energy-line-1" opacity="0">
	<path id="XMLID_184_" class="st72" d="M324,117c6.9,28.7,27,18,27,18"/>
	<path id="XMLID_187_" class="st72" d="M324,117.8c6.9,28.7,74-5,74-5"/>
</g>
<g id="waste-to-energy-power-pole" opacity="0">
	<g id="XMLID_401_">
		<ellipse id="XMLID_404_" class="st73" cx="375.6" cy="189.7" rx="18.3" ry="4.1"/>
		<path id="XMLID_403_" class="st73" d="M384.2,192.4h-18.7c-8.3,0-15.1-6.8-15.1-15.1v-1.7c0-6.4,5.2-11.7,11.7-11.7h25.5
			c6.4,0,11.7,5.2,11.7,11.7v1.7C399.3,185.7,392.5,192.4,384.2,192.4z"/>
		<ellipse id="XMLID_402_" class="st74" cx="374.9" cy="172.6" rx="24.4" ry="11.7"/>
	</g>
	<g id="XMLID_298_">
		<g id="XMLID_392_">
			
				<rect id="XMLID_400_" x="399.8" y="118.1" transform="matrix(0.4923 -0.8704 0.8704 0.4923 96.5496 410.7403)" class="st75" width="1.1" height="9.1"/>
			<g id="XMLID_397_">
				
					<rect id="XMLID_399_" x="386" y="113.3" transform="matrix(-0.4469 -0.8946 0.8946 -0.4469 446.5333 528.3671)" class="st75" width="1.1" height="25.8"/>
				
					<rect id="XMLID_398_" x="385.5" y="112.2" transform="matrix(-0.4469 -0.8946 0.8946 -0.4469 446.7066 526.454)" class="st76" width="1.1" height="25.8"/>
			</g>
			<path id="XMLID_396_" class="st76" d="M397,119.4L397,119.4c-0.2,0.3-0.1,0.6,0.2,0.8l9,5.1c0.3,0.1,0.6,0.1,0.7-0.2l0-0.1
				c0.1-0.3,0.1-0.6-0.2-0.7l-9-5.1C397.4,119,397.1,119.1,397,119.4z"/>
			<g id="XMLID_393_">
				<path id="XMLID_395_" class="st75" d="M388,137.5L388,137.5c0.2,0.3,0.5,0.4,0.8,0.2l17.6-11.8c0.2-0.2,0.3-0.5,0.1-0.7l0-0.1
					c-0.2-0.2-0.5-0.3-0.7-0.1l-17.6,11.8C387.9,136.9,387.9,137.2,388,137.5z"/>
				
					<rect id="XMLID_394_" x="396.1" y="119.2" transform="matrix(-0.5569 -0.8306 0.8306 -0.5569 509.3372 532.4286)" class="st76" width="1.1" height="22.3"/>
			</g>
		</g>
		<g id="XMLID_383_">
			
				<rect id="XMLID_391_" x="399.4" y="110" transform="matrix(0.4923 -0.8704 0.8704 0.4923 103.3285 406.325)" class="st75" width="1.1" height="9.1"/>
			<g id="XMLID_388_">
				
					<rect id="XMLID_390_" x="385.6" y="105.2" transform="matrix(-0.4469 -0.8946 0.8946 -0.4469 453.1342 516.4111)" class="st75" width="1.1" height="25.8"/>
				
					<rect id="XMLID_389_" x="385.1" y="104.2" transform="matrix(-0.4469 -0.8946 0.8946 -0.4469 453.3076 514.4981)" class="st76" width="1.1" height="25.8"/>
			</g>
			<path id="XMLID_387_" class="st76" d="M396.6,111.3L396.6,111.3c-0.2,0.3-0.1,0.6,0.2,0.8l9,5.1c0.3,0.1,0.6,0.1,0.7-0.2l0-0.1
				c0.1-0.3,0.1-0.6-0.2-0.7l-9-5.1C397,111,396.7,111.1,396.6,111.3z"/>
			<g id="XMLID_384_">
				<path id="XMLID_386_" class="st75" d="M388.4,128.9L388.4,128.9c0.2,0.3,0.5,0.4,0.8,0.2l16.9-11.3c0.2-0.2,0.3-0.5,0.1-0.7
					l0-0.1c-0.2-0.2-0.5-0.3-0.7-0.1l-16.9,11.3C388.3,128.4,388.2,128.7,388.4,128.9z"/>
				
					<rect id="XMLID_385_" x="396.1" y="111.4" transform="matrix(-0.5569 -0.8306 0.8306 -0.5569 516.1898 519.5347)" class="st76" width="1.1" height="21.4"/>
			</g>
		</g>
		<g id="XMLID_373_">
			<g id="XMLID_380_">
				
					<rect id="XMLID_382_" x="379.8" y="119.4" transform="matrix(0.5016 -0.8651 0.8651 0.5016 78.821 392.8327)" class="st76" width="1.1" height="17.2"/>
				
					<rect id="XMLID_381_" x="380.3" y="118.4" transform="matrix(0.5016 -0.8651 0.8651 0.5016 79.9484 392.8358)" class="st77" width="1.1" height="17.2"/>
			</g>
			<g id="XMLID_377_">
				
					<rect id="XMLID_379_" x="380.5" y="131.2" transform="matrix(0.5016 -0.8651 0.8651 0.5016 67.5756 400.1975)" class="st76" width="1.1" height="20.4"/>
				
					<rect id="XMLID_378_" x="381.1" y="130.3" transform="matrix(0.5016 -0.8651 0.8651 0.5016 68.703 400.2006)" class="st77" width="1.1" height="20.4"/>
			</g>
			<g id="XMLID_374_">
				
					<rect id="XMLID_376_" x="383.1" y="148.7" transform="matrix(0.5016 -0.8651 0.8651 0.5016 53.763 411.0497)" class="st76" width="1.1" height="20.4"/>
				
					<rect id="XMLID_375_" x="383.6" y="147.7" transform="matrix(0.5016 -0.8651 0.8651 0.5016 54.8904 411.0528)" class="st77" width="1.1" height="20.4"/>
			</g>
		</g>
		<g id="XMLID_363_">
			<g id="XMLID_370_">
				
					<rect id="XMLID_372_" x="369.8" y="116.7" transform="matrix(-0.5016 -0.8651 0.8651 -0.5016 446.6782 510.4948)" class="st76" width="1.1" height="19.7"/>
				
					<rect id="XMLID_371_" x="369.3" y="115.8" transform="matrix(-0.5016 -0.8651 0.8651 -0.5016 446.6728 508.5381)" class="st77" width="1.1" height="19.7"/>
			</g>
			<g id="XMLID_367_">
				
					<rect id="XMLID_369_" x="368" y="130.4" transform="matrix(-0.5016 -0.8651 0.8651 -0.5016 431.7534 530.0196)" class="st76" width="1.1" height="20.4"/>
				
					<rect id="XMLID_368_" x="367.4" y="129.5" transform="matrix(-0.5016 -0.8651 0.8651 -0.5016 431.748 528.0628)" class="st77" width="1.1" height="20.4"/>
			</g>
			<g id="XMLID_364_">
				
					<rect id="XMLID_366_" x="365.5" y="147.8" transform="matrix(-0.5016 -0.8651 0.8651 -0.5016 412.917 553.9944)" class="st76" width="1.1" height="20.4"/>
				
					<rect id="XMLID_365_" x="364.9" y="146.9" transform="matrix(-0.5016 -0.8651 0.8651 -0.5016 412.9116 552.0377)" class="st77" width="1.1" height="20.4"/>
			</g>
		</g>
		<g id="XMLID_353_">
			<g id="XMLID_360_">
				
					<rect id="XMLID_362_" x="368.3" y="118.7" transform="matrix(0.8545 -0.5195 0.5195 0.8545 -13.2032 210.3414)" class="st76" width="1.1" height="20"/>
				
					<rect id="XMLID_361_" x="369.2" y="118.2" transform="matrix(0.8545 -0.5195 0.5195 0.8545 -12.7581 210.7572)" class="st77" width="1.1" height="20"/>
			</g>
			<g id="XMLID_357_">
				
					<rect id="XMLID_359_" x="366.8" y="130.5" transform="matrix(0.8545 -0.5195 0.5195 0.8545 -20.2818 211.5118)" class="st76" width="1.1" height="22.9"/>
				
					<rect id="XMLID_358_" x="367.8" y="129.9" transform="matrix(0.8545 -0.5195 0.5195 0.8545 -19.8366 211.9277)" class="st77" width="1.1" height="22.9"/>
			</g>
			<g id="XMLID_354_">
				
					<rect id="XMLID_356_" x="367.3" y="145" transform="matrix(0.8545 -0.5195 0.5195 0.8545 -29.1509 214.2976)" class="st76" width="1.1" height="28.3"/>
				
					<rect id="XMLID_355_" x="368.3" y="144.5" transform="matrix(0.8545 -0.5195 0.5195 0.8545 -28.7058 214.7135)" class="st77" width="1.1" height="28.3"/>
			</g>
		</g>
		<g id="XMLID_343_">
			<g id="XMLID_350_">
				
					<rect id="XMLID_352_" x="380.3" y="117.8" transform="matrix(-0.8545 -0.5195 0.5195 -0.8545 639.9804 434.9496)" class="st76" width="1.1" height="20"/>
				
					<rect id="XMLID_351_" x="379.4" y="117.3" transform="matrix(-0.8545 -0.5195 0.5195 -0.8545 638.4959 433.3605)" class="st77" width="1.1" height="20"/>
			</g>
			<g id="XMLID_347_">
				
					<rect id="XMLID_349_" x="381.8" y="129.6" transform="matrix(-0.8545 -0.5195 0.5195 -0.8545 635.8024 460.2175)" class="st76" width="1.1" height="22.9"/>
				
					<rect id="XMLID_348_" x="380.8" y="129" transform="matrix(-0.8545 -0.5195 0.5195 -0.8545 634.3179 458.6284)" class="st77" width="1.1" height="22.9"/>
			</g>
			<g id="XMLID_344_">
				
					<rect id="XMLID_346_" x="382.3" y="144.4" transform="matrix(-0.8545 -0.5195 0.5195 -0.8545 628.5659 489.3478)" class="st76" width="1.1" height="24.4"/>
				
					<rect id="XMLID_345_" x="381.3" y="143.8" transform="matrix(-0.8545 -0.5195 0.5195 -0.8545 627.0814 487.7587)" class="st77" width="1.1" height="24.4"/>
			</g>
		</g>
		<g id="XMLID_336_">
			<g id="XMLID_340_">
				
					<rect id="XMLID_342_" x="381.8" y="141" transform="matrix(-0.4578 -0.8891 0.8891 -0.4578 424.6439 557.769)" class="st76" width="1.1" height="16.8"/>
				
					<rect id="XMLID_341_" x="381.3" y="140" transform="matrix(-0.4578 -0.8891 0.8891 -0.4578 424.7828 555.8459)" class="st75" width="1.1" height="16.8"/>
			</g>
			<g id="XMLID_337_">
				
					<rect id="XMLID_339_" x="366.8" y="140.4" transform="matrix(0.4578 -0.8891 0.8891 0.4578 66.5142 407.5684)" class="st76" width="1.1" height="17.6"/>
				
					<rect id="XMLID_338_" x="367.4" y="139.4" transform="matrix(0.4578 -0.8891 0.8891 0.4578 67.687 407.4836)" class="st75" width="1.1" height="17.6"/>
			</g>
		</g>
		<g id="XMLID_329_">
			<g id="XMLID_333_">
				
					<rect id="XMLID_335_" x="380.6" y="126.3" transform="matrix(-0.4578 -0.8891 0.8891 -0.4578 436.6384 534.1521)" class="st76" width="1.1" height="15.2"/>
				
					<rect id="XMLID_334_" x="380.1" y="125.3" transform="matrix(-0.4578 -0.8891 0.8891 -0.4578 436.7774 532.2291)" class="st75" width="1.1" height="15.2"/>
			</g>
			<g id="XMLID_330_">
				
					<rect id="XMLID_332_" x="367.4" y="126.4" transform="matrix(0.4578 -0.8891 0.8891 0.4578 80.3883 399.7751)" class="st76" width="1.1" height="15.2"/>
				
					<rect id="XMLID_331_" x="367.9" y="125.4" transform="matrix(0.4578 -0.8891 0.8891 0.4578 81.5611 399.6903)" class="st75" width="1.1" height="15.2"/>
			</g>
		</g>
		<g id="XMLID_326_">
			
				<rect id="XMLID_328_" x="388.4" y="116.5" transform="matrix(0.9892 -0.1466 0.1466 0.9892 -16.941 58.6049)" class="st75" width="1.1" height="55.5"/>
			
				<rect id="XMLID_327_" x="389.6" y="116.3" transform="matrix(0.9892 -0.1466 0.1466 0.9892 -16.9047 58.7669)" class="st76" width="1.1" height="55.5"/>
		</g>
		<g id="XMLID_323_">
			
				<rect id="XMLID_325_" x="374.2" y="121.6" transform="matrix(0.9998 -1.981165e-002 1.981165e-002 0.9998 -2.8995 7.4545)" class="st76" width="1.1" height="57"/>
			
				<rect id="XMLID_324_" x="375.3" y="121.5" transform="matrix(0.9998 -1.981165e-002 1.981165e-002 0.9998 -2.8988 7.4769)" class="st75" width="1.1" height="57"/>
		</g>
		<g id="XMLID_320_">
			
				<rect id="XMLID_322_" x="360.1" y="116.6" transform="matrix(-0.9892 -0.1466 0.1466 -0.9892 696.2263 340.0295)" class="st75" width="1.1" height="55.5"/>
			
				<rect id="XMLID_321_" x="359" y="116.5" transform="matrix(-0.9892 -0.1466 0.1466 -0.9892 694.0287 339.5364)" class="st76" width="1.1" height="55.5"/>
		</g>
		<polygon id="XMLID_319_" class="st78" points="361.1,115.4 374.8,122.9 388,115.4 374.5,108.9 		"/>
		<polygon id="XMLID_318_" class="st76" points="362,117.2 375.2,124.9 375.6,122.9 362,115.4 		"/>
		<polygon id="XMLID_317_" class="st79" points="388,117.6 374.4,124.9 374.7,122.9 388,115.4 		"/>
		<g id="XMLID_308_">
			
				<rect id="XMLID_316_" x="348.6" y="149.3" transform="matrix(-0.4923 0.8704 -0.8704 -0.4923 654.9142 -74.2705)" class="st76" width="1.1" height="9.1"/>
			<g id="XMLID_313_">
				
					<rect id="XMLID_315_" x="362.3" y="137.4" transform="matrix(0.4469 0.8946 -0.8946 0.4469 335.1709 -241.4799)" class="st76" width="1.1" height="25.8"/>
				
					<rect id="XMLID_314_" x="362.8" y="138.4" transform="matrix(0.4469 0.8946 -0.8946 0.4469 336.3536 -241.3727)" class="st77" width="1.1" height="25.8"/>
			</g>
			<path id="XMLID_312_" class="st77" d="M352.5,157.1L352.5,157.1c0.2-0.3,0.1-0.6-0.2-0.8l-9-5.1c-0.3-0.1-0.6-0.1-0.7,0.2l0,0.1
				c-0.1,0.3-0.1,0.6,0.2,0.7l9,5.1C352,157.5,352.4,157.4,352.5,157.1z"/>
			<g id="XMLID_309_">
				<path id="XMLID_311_" class="st76" d="M360.7,139.5L360.7,139.5c-0.2-0.3-0.5-0.4-0.8-0.2L343,150.6c-0.2,0.2-0.3,0.5-0.1,0.7
					l0,0.1c0.2,0.2,0.5,0.3,0.7,0.1l16.9-11.3C360.8,140.1,360.8,139.8,360.7,139.5z"/>
				
					<rect id="XMLID_310_" x="351.8" y="135.7" transform="matrix(0.5569 0.8306 -0.8306 0.5569 277.7277 -227.8404)" class="st77" width="1.1" height="21.4"/>
			</g>
		</g>
		<g id="XMLID_299_">
			
				<rect id="XMLID_307_" x="349.1" y="140.4" transform="matrix(-0.4923 0.8704 -0.8704 -0.4923 647.9064 -88.0265)" class="st76" width="1.1" height="9.1"/>
			<g id="XMLID_304_">
				
					<rect id="XMLID_306_" x="362.8" y="128.5" transform="matrix(0.4469 0.8946 -0.8946 0.4469 327.4708 -246.8686)" class="st76" width="1.1" height="25.8"/>
				
					<rect id="XMLID_305_" x="363.3" y="129.5" transform="matrix(0.4469 0.8946 -0.8946 0.4469 328.6535 -246.7614)" class="st77" width="1.1" height="25.8"/>
			</g>
			<path id="XMLID_303_" class="st77" d="M353,148.2L353,148.2c0.2-0.3,0.1-0.6-0.2-0.8l-9-5.1c-0.3-0.1-0.6-0.1-0.7,0.2l0,0.1
				c-0.1,0.3-0.1,0.6,0.2,0.7l9,5.1C352.5,148.5,352.9,148.5,353,148.2z"/>
			<g id="XMLID_300_">
				<path id="XMLID_302_" class="st76" d="M361.9,130.1L361.9,130.1c-0.2-0.3-0.5-0.4-0.8-0.2l-17.6,11.8c-0.2,0.2-0.3,0.5-0.1,0.7
					l0,0.1c0.2,0.2,0.5,0.3,0.7,0.1l17.6-11.8C362,130.7,362.1,130.3,361.9,130.1z"/>
				
					<rect id="XMLID_301_" x="352.7" y="126.1" transform="matrix(0.5569 0.8306 -0.8306 0.5569 270.4991 -232.6466)" class="st77" width="1.1" height="22.3"/>
			</g>
		</g>
	</g>
</g>
<g id="waste-to-energy-line-2" opacity="0">
	<path id="XMLID_193_" class="st80" d="M360.1,147.4C371,218,450,216,450,216"/>
	<path id="XMLID_194_" class="st80" d="M396,135c30,57,135,81,135,81"/>
</g>
<g id="waste-to-energy-exhaust-filter" opacity="0">
	<line id="XMLID_130_" class="st81" x1="392.9" y1="349.6" x2="393.4" y2="274.5"/>
	<line id="XMLID_110_" class="st81" x1="418" y1="364.7" x2="418.5" y2="289.7"/>
	<g id="XMLID_47_">
		<polyline id="XMLID_92_" class="st82" points="317.2,295.9 306.8,309 330.1,303.2 		"/>
		<g id="XMLID_157_">
			<path id="XMLID_132_" class="st83" d="M314.6,304.1l106.7,46.5c3.3,2,2,5.4,2,5.4l-17.4,9.8l-111.5-51l16.4-10.7
				C313.2,302.8,314.6,304.1,314.6,304.1z"/>
			<path id="XMLID_133_" class="st84" d="M423.2,353.1l-16.6,9.5c0.1,1.4-0.8,3.3-0.8,3.3l17.4-9.8
				C424.3,354.2,423.2,353.1,423.2,353.1z"/>
			<path id="XMLID_131_" class="st85" d="M402.7,366.5l-107-47.7c-1.5-0.6-2.1-2.4-1.5-3.8l0.2-0.3c0.6-1.5,2.4-2.1,3.8-1.5
				l107,47.7c1.5,0.6,2.1,2.4,1.5,3.8l-0.2,0.3C405.8,366.5,404.1,367.1,402.7,366.5z"/>
			<g id="XMLID_156_">
				
					<ellipse id="XMLID_134_" transform="matrix(0.9026 0.4305 -0.4305 0.9026 165.3646 -97.1515)" class="st86" cx="297.3" cy="316.8" rx="1.9" ry="1.7"/>
				
					<ellipse id="XMLID_135_" transform="matrix(0.9026 0.4305 -0.4305 0.9026 166.6671 -98.9476)" class="st86" cx="302" cy="318.8" rx="1.9" ry="1.7"/>
				
					<ellipse id="XMLID_137_" transform="matrix(0.9026 0.4305 -0.4305 0.9026 168.3181 -100.9635)" class="st86" cx="307.2" cy="321.4" rx="1.9" ry="1.7"/>
				
					<ellipse id="XMLID_136_" transform="matrix(0.9026 0.4305 -0.4305 0.9026 169.6206 -102.7596)" class="st86" cx="311.9" cy="323.4" rx="1.9" ry="1.7"/>
				
					<ellipse id="XMLID_141_" transform="matrix(0.9026 0.4305 -0.4305 0.9026 170.9874 -104.8398)" class="st86" cx="317.1" cy="325.4" rx="1.9" ry="1.7"/>
				
					<ellipse id="XMLID_140_" transform="matrix(0.9026 0.4305 -0.4305 0.9026 172.2899 -106.6359)" class="st86" cx="321.8" cy="327.4" rx="1.9" ry="1.7"/>
				
					<ellipse id="XMLID_139_" transform="matrix(0.9026 0.4305 -0.4305 0.9026 173.9409 -108.6518)" class="st86" cx="327" cy="330" rx="1.9" ry="1.7"/>
				
					<ellipse id="XMLID_138_" transform="matrix(0.9026 0.4305 -0.4305 0.9026 175.2434 -110.4479)" class="st86" cx="331.7" cy="332" rx="1.9" ry="1.7"/>
				
					<ellipse id="XMLID_149_" transform="matrix(0.9026 0.4305 -0.4305 0.9026 176.9586 -112.7479)" class="st86" cx="337.6" cy="334.6" rx="1.9" ry="1.7"/>
				
					<ellipse id="XMLID_148_" transform="matrix(0.9026 0.4305 -0.4305 0.9026 178.2612 -114.544)" class="st86" cx="342.2" cy="336.6" rx="1.9" ry="1.7"/>
				
					<ellipse id="XMLID_147_" transform="matrix(0.9026 0.4305 -0.4305 0.9026 179.9121 -116.5599)" class="st86" cx="347.5" cy="339.2" rx="1.9" ry="1.7"/>
				
					<ellipse id="XMLID_146_" transform="matrix(0.9026 0.4305 -0.4305 0.9026 181.2146 -118.356)" class="st86" cx="352.1" cy="341.2" rx="1.9" ry="1.7"/>
				
					<ellipse id="XMLID_145_" transform="matrix(0.9026 0.4305 -0.4305 0.9026 182.5814 -120.4362)" class="st86" cx="357.4" cy="343.2" rx="1.9" ry="1.7"/>
				
					<ellipse id="XMLID_144_" transform="matrix(0.9026 0.4305 -0.4305 0.9026 183.884 -122.2323)" class="st86" cx="362" cy="345.2" rx="1.9" ry="1.7"/>
				
					<ellipse id="XMLID_143_" transform="matrix(0.9026 0.4305 -0.4305 0.9026 185.1865 -124.0284)" class="st86" cx="366.6" cy="347.2" rx="1.9" ry="1.7"/>
				
					<ellipse id="XMLID_142_" transform="matrix(0.9026 0.4305 -0.4305 0.9026 186.8374 -126.0443)" class="st86" cx="371.9" cy="349.8" rx="1.9" ry="1.7"/>
				
					<ellipse id="XMLID_153_" transform="matrix(0.9026 0.4305 -0.4305 0.9026 188.2042 -128.1245)" class="st86" cx="377.2" cy="351.8" rx="1.9" ry="1.7"/>
				
					<ellipse id="XMLID_152_" transform="matrix(0.9026 0.4305 -0.4305 0.9026 189.5068 -129.9206)" class="st86" cx="381.8" cy="353.8" rx="1.9" ry="1.7"/>
				
					<ellipse id="XMLID_151_" transform="matrix(0.9026 0.4305 -0.4305 0.9026 190.8093 -131.7167)" class="st86" cx="386.4" cy="355.7" rx="1.9" ry="1.7"/>
				
					<ellipse id="XMLID_150_" transform="matrix(0.9026 0.4305 -0.4305 0.9026 192.4602 -133.7326)" class="st86" cx="391.7" cy="358.4" rx="1.9" ry="1.7"/>
				
					<ellipse id="XMLID_155_" transform="matrix(0.9026 0.4305 -0.4305 0.9026 193.8271 -135.8128)" class="st86" cx="397" cy="360.4" rx="1.9" ry="1.7"/>
				
					<ellipse id="XMLID_154_" transform="matrix(0.9026 0.4305 -0.4305 0.9026 195.478 -137.8287)" class="st86" cx="402.3" cy="363" rx="1.9" ry="1.7"/>
			</g>
		</g>
		<g id="XMLID_165_">
			<path id="XMLID_164_" class="st87" d="M331.1,317.5h-0.5c-2.1,0-3.9-1.7-3.9-3.9v-3.8c0-2.1,1.7-3.9,3.9-3.9h0.5
				c2.1,0,3.9,1.7,3.9,3.9v3.8C335,315.8,333.3,317.5,331.1,317.5z"/>
			<g id="XMLID_161_">
				<path id="XMLID_163_" class="st88" d="M306.6,312.2c1.1,4.3,7.1,6.8,7.1,6.8c5.6,2.9,11.5,3,11.5,3c5.1,0.8,10.3,4.5,10.3,4.5
					c4.4,4,9.2,4,9.2,4c4.8,0.5,5.2-2.1,5.2-2.1c1.6-3.5-0.8-5.7-0.8-5.7c-6.6-5.9-9.6-6.5-9.6-6.5c-6.9-3.3-9.3-2.2-9.3-2.2
					c-4.5,0.8-6.8-2.7-6.8-2.7c-3.7-4.1-11.3-2.4-11.3-2.4C305.5,309.7,306.6,312.2,306.6,312.2z"/>
				<path id="XMLID_162_" class="st89" d="M309.3,309.4c1,4.1,3.7,5.5,3.7,5.5c2.4,2,5.8,1.3,5.8,1.3c3-0.2,6.9,4.3,6.9,4.3
					c4.5,1.4,7.1,2.1,7.1,2.1c4.5,0.1,8,3.8,8,3.8c2.1,1.9,5.3,1.8,5.3,1.8c2,0.9,0.7,2.2,0.7,2.2c-4.6,1.1-9.3-2.5-9.3-2.5
					c-4-3.1-8.5-5-8.5-5c-5.4-1.2-6.2-1.3-6.2-1.3c-12.3-2.1-13.6-5.6-13.6-5.6c-3.8-2.9-2.7-4-2.7-4
					C307,309.5,309.3,309.4,309.3,309.4z"/>
			</g>
		</g>
		<g id="XMLID_87_">
			<path id="XMLID_54_" class="st90" d="M309.7,287.7l11.2,17c9.8,6.6,20.2,0.8,20.2,0.8l11.8-17.5L309.7,287.7z"/>
			<path id="XMLID_53_" class="st91" d="M309,244.8v42.9c22,21.3,43.6,0.3,43.6,0.3l0.4-42.5c-0.1-4.1-2.3-5.5-2.3-5.5l-10.3-10.4
				c-9-3.2-18.8,0-18.8,0l-11.6,13C309.1,243.8,309,244.8,309,244.8z"/>
			<path id="XMLID_55_" class="st92" d="M324,296.3v-39.6c-13-2-14.5-9.8-14.5-9.8l0,40.8C316.2,294,324,296.3,324,296.3z"/>
			<path id="XMLID_56_" class="st93" d="M330.6,239.2L324,258c-12.1-2.2-14.8-10.6-14.8-10.6l0.1-3.8l12.1-14L330.6,239.2z"/>
			<path id="XMLID_57_" class="st94" d="M324.1,258c22.4,4.1,29-9.2,29-9.2l0-5c-0.3-3.3-12.8-14.2-12.8-14.2l-9.8,9.6L324.1,258z"
				/>
			<ellipse id="XMLID_58_" class="st95" cx="331.1" cy="234.2" rx="11.1" ry="5.9"/>
			<g id="XMLID_74_">
				<path id="XMLID_67_" class="st96" d="M331.8,238.9h-1.1c-4.8,0-8.7-3.9-8.7-8.7v-4.3c0-4.8,3.9-8.7,8.7-8.7h1.1
					c4.8,0,8.7,3.9,8.7,8.7v4.3C340.5,234.9,336.6,238.9,331.8,238.9z"/>
				<path id="XMLID_70_" class="st97" d="M331.2,238.9h-0.6c-4.8,0-8.7-3.9-8.7-8.7v-4.3c0-4.8,3.9-8.7,8.7-8.7h0.6V238.9z"/>
				<path id="XMLID_71_" class="st98" d="M333.2,238.9h-0.9c-0.6,0-1-0.5-1-1v-18c0-0.6,0.5-1,1-1h2.9c0.6,0,1,0.5,1,1v16
					C336.2,237.5,334.9,238.9,333.2,238.9z"/>
				<ellipse id="XMLID_72_" class="st99" cx="331.2" cy="221.6" rx="8.6" ry="4.2"/>
			</g>
			<g id="XMLID_59_">
				<path id="XMLID_75_" class="st91" d="M353.1,277.7l-4.5-2.8c-3.6-2.1-4.8-6.7-2.7-10.3l0,0c2.1-3.6,6.7-4.8,10.3-2.7l4.5,2.8
					c3.6,2.1,2.8,5.4,0.7,8.9h0C359.3,277.3,356.7,279.8,353.1,277.7z"/>
				<path id="XMLID_88_" class="st100" d="M360,275.7c-3.8,3.8-9,0.4-9,0.4l-1.7-1c-5.1-3.1-4.5-8.3-4.5-8.3L360,275.7"/>
				
					<ellipse id="XMLID_73_" transform="matrix(0.5836 -0.8121 0.8121 0.5836 -71.7257 404.0507)" class="st70" cx="358.1" cy="272" rx="6.4" ry="3.7"/>
			</g>
		</g>
		<g id="XMLID_158_">
			<path id="XMLID_159_" class="st88" d="M362.1,335.9c1.1,4.3,7.1,6.8,7.1,6.8c5.6,2.9,11.5,3,11.5,3c5.1,0.8,10.3,4.5,10.3,4.5
				c4.4,4,9.2,4,9.2,4c4.8,0.5,5.2-2.1,5.2-2.1c1.6-3.5-0.8-5.7-0.8-5.7c-6.6-5.9-9.6-6.5-9.6-6.5c-6.9-3.3-9.3-2.2-9.3-2.2
				c-4.5,0.8-6.8-2.7-6.8-2.7c-3.7-4.1-11.3-2.4-11.3-2.4C361,333.5,362.1,335.9,362.1,335.9z"/>
			<path id="XMLID_160_" class="st89" d="M364.7,333.2c1,4.1,3.7,5.5,3.7,5.5c2.4,2,5.8,1.3,5.8,1.3c3-0.2,6.9,4.3,6.9,4.3
				c4.5,1.4,7.1,2.1,7.1,2.1c4.5,0.1,8,3.8,8,3.8c2.1,1.9,5.3,1.8,5.3,1.8c2,0.9,0.7,2.2,0.7,2.2c-4.6,1.1-9.3-2.5-9.3-2.5
				c-4-3.1-8.5-5-8.5-5c-5.4-1.2-6.2-1.3-6.2-1.3c-12.3-2.1-13.6-5.6-13.6-5.6c-3.8-2.9-2.7-4-2.7-4
				C362.4,333.3,364.7,333.2,364.7,333.2z"/>
		</g>
		<g id="XMLID_96_">
			<polyline id="XMLID_90_" class="st101" points="306.6,331 306.1,289.8 330,303.2 330,344.5 330.1,303.1 354,289.7 354,322 			"/>
			<polyline id="XMLID_91_" class="st82" points="306.8,326.6 330.4,320.9 306.8,290 			"/>
			<line id="XMLID_94_" class="st82" x1="330.1" y1="338.2" x2="307.4" y2="308.3"/>
			<line id="XMLID_95_" class="st82" x1="354.5" y1="289.7" x2="330.4" y2="320.9"/>
			<polyline id="XMLID_93_" class="st82" points="341.2,305.6 354.1,309 346.2,298.1 			"/>
			<line id="XMLID_97_" class="st101" x1="306" y1="289.7" x2="309.7" y2="287.7"/>
			<line id="XMLID_98_" class="st101" x1="354.2" y1="289.7" x2="352.5" y2="288.7"/>
		</g>
		<path id="XMLID_414_" class="st102" d="M360.4,277.8l-2.5-1.4c-1.3-0.8-1.8-2.5-1-3.8l0.2-0.3c0.8-1.3,2.5-1.8,3.8-1l2.5,1.4
			c1.3,0.8,1.8,2.5,1,3.8l-0.2,0.3C363.5,278.1,361.8,278.6,360.4,277.8z"/>
		<g id="XMLID_115_">
			<g id="XMLID_121_">
				<polygon id="XMLID_129_" class="st103" points="392,278.5 374.3,287.8 358.4,278.5 376.5,269.4 				"/>
				<path id="XMLID_128_" class="st104" d="M369.6,324.4l4.5,7.7c2.3,2.9,5.2,0,5.2,0l9.9-18.7l-25.8,1.3L369.6,324.4z"/>
				<polygon id="XMLID_127_" class="st105" points="391,311.9 374,320.7 374,287.7 391,278.5 				"/>
				<polygon id="XMLID_126_" class="st106" points="377,299.6 381,298.1 381,303.6 377,305.1 				"/>
				<polygon id="XMLID_125_" class="st107" points="386,294.3 389,292.8 389,298.3 386,299.8 				"/>
				<polygon id="XMLID_124_" class="st108" points="358,278.5 374,287.8 374,320.7 358,312.5 				"/>
				<path id="XMLID_123_" class="st109" d="M368.4,322.5c6.8,4.7,15.9,0,15.9,0l-5.1,10.3c-2.1,2.5-4.6,0-4.6,0L368.4,322.5z"/>
				<polyline id="XMLID_122_" class="st110" points="358.8,305.7 374.6,313.4 391.8,304.3 				"/>
			</g>
			<polyline id="XMLID_120_" class="st81" points="357,354 357,277.8 372,286.2 372,361 			"/>
			<polyline id="XMLID_119_" class="st111" points="357.1,349.6 373,342.3 357.1,318.1 373,326.7 393.4,315.5 			"/>
			<polyline id="XMLID_118_" class="st111" points="373,357.5 357.1,333.9 373,326.7 393.4,331.1 			"/>
			<line id="XMLID_117_" class="st111" x1="392.9" y1="315.5" x2="373" y2="342.5"/>
			<polyline id="XMLID_116_" class="st81" points="373,286.2 393.4,274.5 378.1,265.5 357.1,277.8 			"/>
		</g>
		<g id="XMLID_108_">
			<g id="XMLID_107_">
				<polygon id="XMLID_100_" class="st103" points="417.1,293.7 399.4,303 383.5,293.7 401.6,284.5 				"/>
				<path id="XMLID_102_" class="st104" d="M394.6,339.5l4.5,7.7c2.3,2.9,5.2,0,5.2,0l9.9-18.7l-25.8,1.3L394.6,339.5z"/>
				<polygon id="XMLID_101_" class="st105" points="417,327.1 400,335.9 400,302.9 417,293.7 				"/>
				<polygon id="XMLID_103_" class="st106" points="403,314.8 405,313.3 405,318.8 403,320.3 				"/>
				<polygon id="XMLID_104_" class="st107" points="412,309.5 414,308 414,313.5 412,315 				"/>
				<polygon id="XMLID_99_" class="st108" points="384,293.7 400,303 400,335.9 384,327.7 				"/>
				<path id="XMLID_106_" class="st109" d="M393.4,337.7c6.8,4.7,15.9,0,15.9,0l-5.1,10.3c-2.1,2.5-4.6,0-4.6,0L393.4,337.7z"/>
				<polyline id="XMLID_105_" class="st110" points="383.9,320.9 399.7,328.6 416.9,319.5 				"/>
			</g>
			<polyline id="XMLID_109_" class="st81" points="382,369 382,293 398,301.4 398,376 			"/>
			<polyline id="XMLID_112_" class="st111" points="382.2,364.7 398,357.5 382.2,333.3 398,341.9 418.5,330.6 			"/>
			<polyline id="XMLID_113_" class="st111" points="398,372.7 382.2,349.1 398,341.9 418.5,346.3 			"/>
			<line id="XMLID_114_" class="st111" x1="418" y1="330.6" x2="398" y2="357.7"/>
			<polyline id="XMLID_111_" class="st81" points="398,301.4 418.5,289.7 403.2,280.7 382.2,293 			"/>
		</g>
	</g>
</g>
</svg>
